<?xml version="1.0" encoding="utf-8"?>
<!-- Generator: Adobe Illustrator 27.0.0, SVG Export Plug-In . SVG Version: 6.00 Build 0)  -->
<svg version="1.1" id="Layer_1" xmlns="http://www.w3.org/2000/svg" xmlns:xlink="http://www.w3.org/1999/xlink" x="0px" y="0px"
	 viewBox="0 0 2782 1080" style="enable-background:new 0 0 2782 1080;" xml:space="preserve">
<style type="text/css">
	
		.st0{clip-path:url(#SVGID_00000023272423586725861150000012739568618436157342_);fill:url(#SVGID_00000079472314381660542090000017613826836136273573_);}
	
		.st1{clip-path:url(#SVGID_00000023272423586725861150000012739568618436157342_);fill:url(#SVGID_00000163053234812365253480000018339259721267033992_);}
	
		.st2{clip-path:url(#SVGID_00000023272423586725861150000012739568618436157342_);fill:url(#SVGID_00000039114881818571591670000008374608572423620284_);}
	
		.st3{clip-path:url(#SVGID_00000023272423586725861150000012739568618436157342_);fill:url(#SVGID_00000155148049837326838780000010802868635909958544_);}
	
		.st4{clip-path:url(#SVGID_00000023272423586725861150000012739568618436157342_);fill:url(#SVGID_00000137099211356087577310000011751052193588111787_);}
	
		.st5{clip-path:url(#SVGID_00000023272423586725861150000012739568618436157342_);fill:url(#SVGID_00000106866135701278312280000007792247293172655538_);}
	
		.st6{clip-path:url(#SVGID_00000023272423586725861150000012739568618436157342_);fill:url(#SVGID_00000080209043328098284680000006136938682722455713_);}
	
		.st7{clip-path:url(#SVGID_00000023272423586725861150000012739568618436157342_);fill:url(#SVGID_00000116212323715974475240000000593526970495983756_);}
	
		.st8{clip-path:url(#SVGID_00000023272423586725861150000012739568618436157342_);fill:url(#SVGID_00000090254081208959524130000012835937404550432691_);}
	
		.st9{clip-path:url(#SVGID_00000023272423586725861150000012739568618436157342_);fill:url(#SVGID_00000054233725795412185180000003865344486171065992_);}
	
		.st10{clip-path:url(#SVGID_00000023272423586725861150000012739568618436157342_);fill:url(#SVGID_00000089565485272649459980000000276908925335644306_);}
	
		.st11{clip-path:url(#SVGID_00000023272423586725861150000012739568618436157342_);fill:url(#SVGID_00000075880886437147044390000009964933708702391691_);}
	
		.st12{clip-path:url(#SVGID_00000023272423586725861150000012739568618436157342_);fill:url(#SVGID_00000033367092819088803140000008059473259284284302_);}
	
		.st13{clip-path:url(#SVGID_00000023272423586725861150000012739568618436157342_);fill:url(#SVGID_00000059994467900380508680000002776710591917523132_);}
	
		.st14{clip-path:url(#SVGID_00000023272423586725861150000012739568618436157342_);fill:url(#SVGID_00000075123937040703412730000002988792454026077333_);}
	
		.st15{clip-path:url(#SVGID_00000023272423586725861150000012739568618436157342_);fill:url(#SVGID_00000041296014863134254200000013881913811117394064_);}
	
		.st16{clip-path:url(#SVGID_00000023272423586725861150000012739568618436157342_);fill:url(#SVGID_00000083060554866445155380000012159370335519603359_);}
	
		.st17{clip-path:url(#SVGID_00000023272423586725861150000012739568618436157342_);fill:url(#SVGID_00000181058707367790861890000002186032848003411861_);}
	
		.st18{clip-path:url(#SVGID_00000023272423586725861150000012739568618436157342_);fill:url(#SVGID_00000044878524522997645050000018391347157001055104_);}
	
		.st19{clip-path:url(#SVGID_00000023272423586725861150000012739568618436157342_);fill:url(#SVGID_00000105428760136967296290000014891595714360477348_);}
</style>
<g>
	<defs>
		<rect id="SVGID_1_" width="2782" height="1080"/>
	</defs>
	<clipPath id="SVGID_00000075852304114681025990000017369449885668038302_">
		<use xlink:href="#SVGID_1_"  style="overflow:visible;"/>
	</clipPath>
	
		<linearGradient id="SVGID_00000009558372539399875600000015043150236383444667_" gradientUnits="userSpaceOnUse" x1="-360.9512" y1="197.9684" x2="2947.7075" y2="2479.446">
		<stop  offset="0" style="stop-color:#8053E3"/>
		<stop  offset="1" style="stop-color:#84C4EA"/>
	</linearGradient>
	
		<path style="clip-path:url(#SVGID_00000075852304114681025990000017369449885668038302_);fill:url(#SVGID_00000009558372539399875600000015043150236383444667_);" d="
		M538.4,1242.5h-52.6c-6.5,0-12.5-1.6-17.8-4.8c-5.3-3.2-9.6-7.6-12.8-13l0,0c-3.2-5.4-4.8-11.5-4.8-18.1v-832h123.7v832
		c0,6.6-1.6,12.7-4.8,18.1c-3.2,5.4-7.5,9.8-12.9,13C551.1,1240.9,545,1242.5,538.4,1242.5z M569.9,378.8H454.7v827.8
		c0,5.8,1.4,11.2,4.2,15.9l0,0c2.8,4.8,6.6,8.7,11.3,11.5c4.7,2.8,9.9,4.2,15.6,4.2h52.6c5.8,0,11.1-1.4,15.8-4.2
		c4.7-2.8,8.6-6.7,11.4-11.5c2.8-4.8,4.2-10.1,4.2-15.9"/>
	
		<linearGradient id="SVGID_00000118398276149946726260000000842256265769004198_" gradientUnits="userSpaceOnUse" x1="-159.0001" y1="-94.9064" x2="3149.6587" y2="2186.571">
		<stop  offset="0" style="stop-color:#8053E3"/>
		<stop  offset="1" style="stop-color:#84C4EA"/>
	</linearGradient>
	
		<path style="clip-path:url(#SVGID_00000075852304114681025990000017369449885668038302_);fill:url(#SVGID_00000118398276149946726260000000842256265769004198_);" d="
		M389.1,707.4h-52.6c-6.5,0-12.5-1.6-17.8-4.8c-5.3-3.2-9.6-7.6-12.8-13l0,0c-3.2-5.4-4.8-11.5-4.8-18.1v-832h123.7v832
		c0,6.6-1.6,12.7-4.8,18.1c-3.2,5.4-7.5,9.8-12.9,13C401.7,705.8,395.7,707.4,389.1,707.4z M305.4-156.3v827.8
		c0,5.8,1.4,11.2,4.2,15.9l0,0c2.8,4.8,6.6,8.7,11.3,11.5c4.7,2.8,9.9,4.2,15.6,4.2h52.6c5.8,0,11.1-1.4,15.8-4.2
		c4.7-2.8,8.6-6.7,11.4-11.5c2.8-4.8,4.2-10.1,4.2-15.9v-827.8H305.4z"/>
	
		<linearGradient id="SVGID_00000034063756676805274120000000828439446644416901_" gradientUnits="userSpaceOnUse" x1="-208.3251" y1="-23.3739" x2="3100.3335" y2="2258.1038">
		<stop  offset="0" style="stop-color:#8053E3"/>
		<stop  offset="1" style="stop-color:#84C4EA"/>
	</linearGradient>
	
		<path style="clip-path:url(#SVGID_00000075852304114681025990000017369449885668038302_);fill:url(#SVGID_00000034063756676805274120000000828439446644416901_);" d="
		M236.1,707.4h-52.6c-6.5,0-12.5-1.6-17.8-4.8c-5.3-3.2-9.6-7.6-12.8-13l0,0c-3.2-5.4-4.8-11.5-4.8-18.1v-832h123.7v832
		c0,6.6-1.6,12.7-4.8,18.1c-3.2,5.4-7.5,9.8-12.9,13C248.7,705.8,242.6,707.4,236.1,707.4z M152.3-156.3v827.8
		c0,5.8,1.4,11.2,4.2,15.9l0,0c2.8,4.8,6.6,8.7,11.3,11.5c4.7,2.8,9.9,4.2,15.6,4.2h52.6c5.8,0,11.1-1.4,15.8-4.2
		c4.7-2.8,8.6-6.7,11.4-11.5c2.8-4.8,4.2-10.1,4.2-15.9v-827.8H152.3z"/>
	
		<linearGradient id="SVGID_00000145045584714588056350000014865821244727471008_" gradientUnits="userSpaceOnUse" x1="-33.2682" y1="-277.2461" x2="3275.3906" y2="2004.2314">
		<stop  offset="0" style="stop-color:#8053E3"/>
		<stop  offset="1" style="stop-color:#84C4EA"/>
	</linearGradient>
	
		<path style="clip-path:url(#SVGID_00000075852304114681025990000017369449885668038302_);fill:url(#SVGID_00000145045584714588056350000014865821244727471008_);" d="
		M574.2,344H450.5v-471.2c0-6.6,1.6-12.7,4.8-18.1c3.2-5.4,7.5-9.8,12.9-13c5.4-3.2,11.4-4.8,18-4.8h52.6c6.5,0,12.5,1.6,17.8,4.8
		c5.3,3.2,9.6,7.6,12.8,13l0,0c3.2,5.4,4.8,11.5,4.8,18.1V344z M454.7,339.8h115.3v-466.9c0-5.8-1.4-11.2-4.2-15.9v0
		c-2.8-4.8-6.6-8.7-11.3-11.5c-4.7-2.8-9.9-4.2-15.6-4.2h-52.6c-5.8,0-11.1,1.4-15.8,4.2c-4.7,2.8-8.6,6.7-11.4,11.5
		c-2.8,4.8-4.2,10.1-4.2,15.9V339.8z"/>
	
		<linearGradient id="SVGID_00000153698820430516753660000015265834644373642417_" gradientUnits="userSpaceOnUse" x1="-506.1195" y1="408.4953" x2="2802.5391" y2="2689.9729">
		<stop  offset="0" style="stop-color:#8053E3"/>
		<stop  offset="1" style="stop-color:#84C4EA"/>
	</linearGradient>
	
		<path style="clip-path:url(#SVGID_00000075852304114681025990000017369449885668038302_);fill:url(#SVGID_00000153698820430516753660000015265834644373642417_);" d="
		M88,1242.5H35.4c-6.5,0-12.5-1.6-17.8-4.8c-5.3-3.2-9.6-7.6-12.8-13l0,0c-3.2-5.4-4.8-11.5-4.8-18.1v-832h123.7v832
		c0,6.6-1.6,12.7-4.8,18.1c-3.2,5.4-7.5,9.8-12.9,13C100.6,1240.9,94.5,1242.5,88,1242.5z M4.2,378.8v827.8c0,5.8,1.4,11.2,4.2,15.9
		l0,0c2.8,4.8,6.6,8.7,11.3,11.5c4.7,2.8,9.9,4.2,15.6,4.2H88c5.8,0,11.1-1.4,15.8-4.2c4.7-2.8,8.6-6.7,11.4-11.5
		c2.8-4.8,4.2-10.1,4.2-15.9V378.8"/>
	
		<linearGradient id="SVGID_00000124120712146190080570000007225078497949011086_" gradientUnits="userSpaceOnUse" x1="-178.4365" y1="-66.7192" x2="3130.2222" y2="2214.7583">
		<stop  offset="0" style="stop-color:#8053E3"/>
		<stop  offset="1" style="stop-color:#84C4EA"/>
	</linearGradient>
	
		<path style="clip-path:url(#SVGID_00000075852304114681025990000017369449885668038302_);fill:url(#SVGID_00000124120712146190080570000007225078497949011086_);" d="
		M123.7,344H0v-471.2c0-6.6,1.6-12.7,4.8-18.1c3.2-5.4,7.5-9.8,12.9-13c5.4-3.2,11.4-4.8,18-4.8h52.6c6.5,0,12.5,1.6,17.8,4.8
		c5.3,3.2,9.6,7.6,12.8,13l0,0c3.2,5.4,4.8,11.5,4.8,18.1V344z M4.2,339.8h115.3v-466.9c0-5.8-1.4-11.2-4.2-15.9v0
		c-2.8-4.8-6.6-8.7-11.3-11.5c-4.7-2.8-9.9-4.2-15.6-4.2H35.7c-5.8,0-11.1,1.4-15.8,4.2c-4.7,2.8-8.6,6.7-11.4,11.5
		c-2.8,4.8-4.2,10.1-4.2,15.9V339.8z"/>
	
		<linearGradient id="SVGID_00000126305710127364680400000002089900417521925511_" gradientUnits="userSpaceOnUse" x1="-501.281" y1="401.4784" x2="2807.3777" y2="2682.9561">
		<stop  offset="0" style="stop-color:#8053E3"/>
		<stop  offset="1" style="stop-color:#84C4EA"/>
	</linearGradient>
	
		<path style="clip-path:url(#SVGID_00000075852304114681025990000017369449885668038302_);fill:url(#SVGID_00000126305710127364680400000002089900417521925511_);" d="
		M424.8,1242.5H301.1V771.4c0-6.6,1.6-12.7,4.8-18.1c3.2-5.4,7.5-9.8,12.9-13c5.4-3.2,11.4-4.8,18-4.8h52.6c6.5,0,12.5,1.6,17.8,4.8
		c5.3,3.2,9.6,7.6,12.8,13c3.2,5.4,4.8,11.5,4.8,18.1V1242.5z M336.9,739.7c-5.8,0-11.1,1.4-15.8,4.2c-4.7,2.8-8.6,6.7-11.4,11.5
		c-2.8,4.8-4.2,10.1-4.2,15.9v466.9h115.3V771.4c0-5.8-1.4-11.2-4.2-15.9l0,0c-2.8-4.8-6.6-8.7-11.3-11.5c-4.7-2.8-9.9-4.2-15.6-4.2
		"/>
	
		<linearGradient id="SVGID_00000108292974768588840420000014338669280979762877_" gradientUnits="userSpaceOnUse" x1="-550.6062" y1="473.011" x2="2758.0525" y2="2754.4885">
		<stop  offset="0" style="stop-color:#8053E3"/>
		<stop  offset="1" style="stop-color:#84C4EA"/>
	</linearGradient>
	
		<path style="clip-path:url(#SVGID_00000075852304114681025990000017369449885668038302_);fill:url(#SVGID_00000108292974768588840420000014338669280979762877_);" d="
		M271.8,1242.5H148.1V771.4c0-6.6,1.6-12.7,4.8-18.1c3.2-5.4,7.5-9.8,12.9-13c5.4-3.2,11.4-4.8,18-4.8h52.6c6.5,0,12.5,1.6,17.8,4.8
		c5.3,3.2,9.6,7.6,12.8,13c3.2,5.4,4.8,11.5,4.8,18.1V1242.5z M183.8,739.7c-5.8,0-11.1,1.4-15.8,4.2c-4.7,2.8-8.6,6.7-11.4,11.5
		c-2.8,4.8-4.2,10.1-4.2,15.9v466.9h115.3V771.4c0-5.8-1.4-11.2-4.2-15.9l0,0c-2.8-4.8-6.6-8.7-11.3-11.5c-4.7-2.8-9.9-4.2-15.6-4.2
		"/>
	
		<linearGradient id="SVGID_00000041998274429337117200000006973313145566289334_" gradientUnits="userSpaceOnUse" x1="-62.3548" y1="-235.064" x2="3246.304" y2="2046.4137">
		<stop  offset="0" style="stop-color:#8053E3"/>
		<stop  offset="1" style="stop-color:#84C4EA"/>
	</linearGradient>
	
		<path style="clip-path:url(#SVGID_00000075852304114681025990000017369449885668038302_);fill:url(#SVGID_00000041998274429337117200000006973313145566289334_);" d="
		M689,707.4h-52.6c-6.5,0-12.5-1.6-17.8-4.8c-5.3-3.2-9.6-7.6-12.8-13l0,0c-3.2-5.4-4.8-11.5-4.8-18.1v-832h123.7v832
		c0,6.6-1.6,12.7-4.8,18.1c-3.2,5.4-7.5,9.8-12.9,13C701.7,705.8,695.6,707.4,689,707.4z M605.3-156.3v827.8
		c0,5.8,1.4,11.2,4.2,15.9l0,0c2.8,4.8,6.6,8.7,11.3,11.5c4.7,2.8,9.9,4.2,15.6,4.2H689c5.8,0,11.1-1.4,15.8-4.2
		c4.7-2.8,8.6-6.7,11.4-11.5c2.8-4.8,4.2-10.1,4.2-15.9v-827.8H605.3z"/>
	
		<linearGradient id="SVGID_00000086660067592857662390000009368007579388445886_" gradientUnits="userSpaceOnUse" x1="-404.6358" y1="261.321" x2="2904.0229" y2="2542.7986">
		<stop  offset="0" style="stop-color:#8053E3"/>
		<stop  offset="1" style="stop-color:#84C4EA"/>
	</linearGradient>
	
		<path style="clip-path:url(#SVGID_00000075852304114681025990000017369449885668038302_);fill:url(#SVGID_00000086660067592857662390000009368007579388445886_);" d="
		M724.7,1242.5H601.1V771.4c0-6.6,1.6-12.7,4.8-18.1c3.2-5.4,7.5-9.8,12.9-13c5.4-3.2,11.4-4.8,18-4.8h52.6c6.5,0,12.5,1.6,17.8,4.8
		c5.3,3.2,9.6,7.6,12.8,13c3.2,5.4,4.8,11.5,4.8,18.1V1242.5z M716.3,755.4c-2.8-4.8-6.6-8.7-11.3-11.5c-4.7-2.8-9.9-4.2-15.6-4.2
		h-52.6c-5.8,0-11.1,1.4-15.8,4.2c-4.7,2.8-8.6,6.7-11.4,11.5c-2.8,4.8-4.2,10.1-4.2,15.9v466.9h115.3V771.4"/>
	
		<linearGradient id="SVGID_00000034767848002640021490000004187670005276552878_" gradientUnits="userSpaceOnUse" x1="695.8517" y1="-1153.3567" x2="4004.5105" y2="1128.121">
		<stop  offset="0" style="stop-color:#8053E3"/>
		<stop  offset="1" style="stop-color:#84C4EA"/>
	</linearGradient>
	
		<path style="clip-path:url(#SVGID_00000075852304114681025990000017369449885668038302_);fill:url(#SVGID_00000034767848002640021490000004187670005276552878_);" d="
		M2779,707.4h-52.6c-6.5,0-12.5-1.6-17.8-4.8c-5.3-3.2-9.6-7.6-12.8-13c-3.2-5.4-4.8-11.5-4.8-18.1v-832h123.7v832
		c0,6.6-1.6,12.7-4.8,18.1c-3.2,5.4-7.5,9.8-12.9,13C2791.6,705.8,2785.5,707.4,2779,707.4z M2695.2-156.3v827.8
		c0,5.8,1.4,11.2,4.2,15.9l0,0c2.8,4.8,6.6,8.7,11.3,11.5c4.7,2.8,9.9,4.2,15.6,4.2h52.6c5.8,0,11.1-1.4,15.8-4.2
		c4.7-2.8,8.6-6.7,11.4-11.5c2.8-4.8,4.2-10.1,4.2-15.9v-827.8H2695.2z"/>
	
		<linearGradient id="SVGID_00000145055245491204343080000007371006495674967204_" gradientUnits="userSpaceOnUse" x1="646.5267" y1="-1081.8242" x2="3955.1853" y2="1199.6533">
		<stop  offset="0" style="stop-color:#8053E3"/>
		<stop  offset="1" style="stop-color:#84C4EA"/>
	</linearGradient>
	
		<path style="clip-path:url(#SVGID_00000075852304114681025990000017369449885668038302_);fill:url(#SVGID_00000145055245491204343080000007371006495674967204_);" d="
		M2625.9,707.4h-52.6c-6.5,0-12.5-1.6-17.8-4.8c-5.3-3.2-9.6-7.6-12.8-13c-3.2-5.4-4.8-11.5-4.8-18.1v-832h123.7v832
		c0,6.6-1.6,12.7-4.8,18.1c-3.2,5.4-7.5,9.8-12.9,13C2638.5,705.8,2632.5,707.4,2625.9,707.4z M2542.1-156.3v827.8
		c0,5.8,1.4,11.2,4.2,15.9l0,0c2.8,4.8,6.6,8.7,11.3,11.5c4.7,2.8,9.9,4.2,15.6,4.2h52.6c5.8,0,11.1-1.4,15.8-4.2
		c4.7-2.8,8.6-6.7,11.4-11.5c2.8-4.8,4.2-10.1,4.2-15.9v-827.8H2542.1z"/>
	
		<linearGradient id="SVGID_00000035506460850175310340000017013000417196993938_" gradientUnits="userSpaceOnUse" x1="348.7321" y1="-649.9547" x2="3657.3909" y2="1631.5229">
		<stop  offset="0" style="stop-color:#8053E3"/>
		<stop  offset="1" style="stop-color:#84C4EA"/>
	</linearGradient>
	
		<path style="clip-path:url(#SVGID_00000075852304114681025990000017369449885668038302_);fill:url(#SVGID_00000035506460850175310340000017013000417196993938_);" d="
		M2477.8,1242.5h-52.6c-6.5,0-12.5-1.6-17.8-4.8c-5.3-3.2-9.6-7.6-12.8-13c-3.2-5.4-4.8-11.5-4.8-18.1v-832h123.7v832
		c0,6.6-1.6,12.7-4.8,18.1c-3.2,5.4-7.5,9.8-12.9,13C2490.4,1240.9,2484.4,1242.5,2477.8,1242.5z M2394.1,378.8v827.8
		c0,5.8,1.4,11.2,4.2,15.9l0,0c2.8,4.8,6.6,8.7,11.3,11.5c4.7,2.8,9.9,4.2,15.6,4.2h52.6c5.8,0,11.1-1.4,15.9-4.2
		c4.7-2.8,8.6-6.7,11.4-11.5c2.8-4.8,4.2-10.1,4.2-15.9V378.8H2394.1z"/>
	
		<linearGradient id="SVGID_00000157301337101972842790000006700595707531281041_" gradientUnits="userSpaceOnUse" x1="676.4153" y1="-1125.1694" x2="3985.074" y2="1156.3082">
		<stop  offset="0" style="stop-color:#8053E3"/>
		<stop  offset="1" style="stop-color:#84C4EA"/>
	</linearGradient>
	
		<path style="clip-path:url(#SVGID_00000075852304114681025990000017369449885668038302_);fill:url(#SVGID_00000157301337101972842790000006700595707531281041_);" d="
		M2513.5,344h-123.7v-471.2c0-6.6,1.6-12.7,4.8-18.1c3.2-5.4,7.5-9.8,12.9-13c5.4-3.2,11.4-4.8,18-4.8h52.6c6.5,0,12.5,1.6,17.8,4.8
		c5.3,3.2,9.6,7.6,12.8,13l0,0c3.2,5.4,4.8,11.5,4.8,18.1V344z M2394.1,339.8h115.3v-466.9c0-5.8-1.4-11.2-4.2-15.9v0
		c-2.8-4.8-6.6-8.7-11.3-11.5c-4.7-2.8-9.9-4.2-15.6-4.2h-52.6c-5.8,0-11.1,1.4-15.8,4.2c-4.7,2.8-8.6,6.7-11.4,11.5
		c-2.8,4.8-4.2,10.1-4.2,15.9V339.8z"/>
	
		<linearGradient id="SVGID_00000146484241858338708190000004297218617789576339_" gradientUnits="userSpaceOnUse" x1="353.5707" y1="-656.9718" x2="3662.2295" y2="1624.5059">
		<stop  offset="0" style="stop-color:#8053E3"/>
		<stop  offset="1" style="stop-color:#84C4EA"/>
	</linearGradient>
	
		<path style="clip-path:url(#SVGID_00000075852304114681025990000017369449885668038302_);fill:url(#SVGID_00000146484241858338708190000004297218617789576339_);" d="
		M2814.7,1242.5H2691V771.4c0-6.6,1.6-12.7,4.8-18.1c3.2-5.4,7.5-9.8,12.9-13c5.4-3.2,11.4-4.8,18-4.8h52.6c6.5,0,12.5,1.6,17.8,4.8
		c5.3,3.2,9.6,7.6,12.8,13l0,0c3.2,5.4,4.8,11.5,4.8,18.1V1242.5z M2695.2,1238.3h115.3V771.4c0-5.8-1.4-11.2-4.2-15.9l0,0
		c-2.8-4.8-6.6-8.7-11.3-11.5c-4.7-2.8-9.9-4.2-15.6-4.2h-52.6c-5.8,0-11.1,1.4-15.8,4.2c-4.7,2.8-8.6,6.7-11.4,11.5
		c-2.8,4.8-4.2,10.1-4.2,15.9V1238.3z"/>
	
		<linearGradient id="SVGID_00000072965056472773701460000017212195346094071985_" gradientUnits="userSpaceOnUse" x1="304.2455" y1="-585.4391" x2="3612.9043" y2="1696.0385">
		<stop  offset="0" style="stop-color:#8053E3"/>
		<stop  offset="1" style="stop-color:#84C4EA"/>
	</linearGradient>
	
		<path style="clip-path:url(#SVGID_00000075852304114681025990000017369449885668038302_);fill:url(#SVGID_00000072965056472773701460000017212195346094071985_);" d="
		M2661.6,1242.5h-123.7V771.4c0-6.6,1.6-12.7,4.8-18.1c3.2-5.4,7.5-9.8,12.9-13c5.4-3.2,11.4-4.8,18-4.8h52.6
		c6.5,0,12.5,1.6,17.8,4.8c5.3,3.2,9.6,7.6,12.8,13c3.2,5.4,4.8,11.5,4.8,18.1V1242.5z M2542.1,1238.3h115.3V771.4
		c0-5.8-1.4-11.2-4.2-15.9l0,0c-2.8-4.8-6.6-8.7-11.3-11.5c-4.7-2.8-9.9-4.2-15.6-4.2h-52.6c-5.8,0-11.1,1.4-15.9,4.2
		c-4.7,2.8-8.6,6.7-11.4,11.5c-2.8,4.8-4.2,10.1-4.2,15.9V1238.3z"/>
	
		<linearGradient id="SVGID_00000013899271907678219030000010500487957642006658_" gradientUnits="userSpaceOnUse" x1="549.8815" y1="-941.6669" x2="3858.5403" y2="1339.8108">
		<stop  offset="0" style="stop-color:#8053E3"/>
		<stop  offset="1" style="stop-color:#84C4EA"/>
	</linearGradient>
	
		<path style="clip-path:url(#SVGID_00000075852304114681025990000017369449885668038302_);fill:url(#SVGID_00000013899271907678219030000010500487957642006658_);" d="
		M2326,707.4h-52.6c-6.5,0-12.5-1.6-17.8-4.8c-5.3-3.2-9.6-7.6-12.8-13c-3.2-5.4-4.8-11.5-4.8-18.1v-832h123.7v832
		c0,6.6-1.6,12.7-4.8,18.1c-3.2,5.4-7.5,9.8-12.9,13C2338.6,705.8,2332.6,707.4,2326,707.4z M2242.2-156.3v827.8
		c0,5.8,1.4,11.2,4.2,15.9l0,0c2.8,4.8,6.6,8.7,11.3,11.5c4.7,2.8,9.9,4.2,15.6,4.2h52.6c5.8,0,11.1-1.4,15.9-4.2
		c4.7-2.8,8.6-6.7,11.4-11.5c2.8-4.8,4.2-10.1,4.2-15.9v-827.8H2242.2z"/>
	
		<linearGradient id="SVGID_00000115478719186833812940000014059537278346092690_" gradientUnits="userSpaceOnUse" x1="500.5562" y1="-870.134" x2="3809.2148" y2="1411.3436">
		<stop  offset="0" style="stop-color:#8053E3"/>
		<stop  offset="1" style="stop-color:#84C4EA"/>
	</linearGradient>
	
		<path style="clip-path:url(#SVGID_00000075852304114681025990000017369449885668038302_);fill:url(#SVGID_00000115478719186833812940000014059537278346092690_);" d="
		M2172.9,707.4h-52.6c-6.5,0-12.5-1.6-17.8-4.8c-5.3-3.2-9.6-7.6-12.8-13c-3.2-5.4-4.8-11.5-4.8-18.1v-832h123.7v832
		c0,6.6-1.6,12.7-4.8,18.1c-3.2,5.4-7.5,9.8-12.9,13C2185.6,705.8,2179.5,707.4,2172.9,707.4z M2089.2-156.3v827.8
		c0,5.8,1.4,11.2,4.2,15.9l0,0c2.8,4.8,6.6,8.7,11.3,11.5c4.7,2.8,9.9,4.2,15.6,4.2h52.6c5.8,0,11.1-1.4,15.9-4.2
		c4.7-2.8,8.6-6.7,11.4-11.5c2.8-4.8,4.2-10.1,4.2-15.9v-827.8H2089.2z"/>
	
		<linearGradient id="SVGID_00000063616995423058421170000015680427078629894071_" gradientUnits="userSpaceOnUse" x1="207.6004" y1="-445.2817" x2="3516.259" y2="1836.1959">
		<stop  offset="0" style="stop-color:#8053E3"/>
		<stop  offset="1" style="stop-color:#84C4EA"/>
	</linearGradient>
	
		<path style="clip-path:url(#SVGID_00000075852304114681025990000017369449885668038302_);fill:url(#SVGID_00000063616995423058421170000015680427078629894071_);" d="
		M2361.7,1242.5H2238V771.4c0-6.6,1.6-12.7,4.8-18.1c3.2-5.4,7.5-9.8,12.9-13c5.4-3.2,11.4-4.8,18-4.8h52.6c6.5,0,12.5,1.6,17.8,4.8
		c5.3,3.2,9.6,7.6,12.8,13c3.2,5.4,4.8,11.5,4.8,18.1V1242.5z M2242.2,1238.3h115.3V771.4c0-5.8-1.4-11.2-4.2-15.9l0,0
		c-2.8-4.8-6.6-8.7-11.3-11.5c-4.7-2.8-9.9-4.2-15.6-4.2h-52.6c-5.8,0-11.1,1.4-15.9,4.2c-4.7,2.8-8.6,6.7-11.4,11.5
		c-2.8,4.8-4.2,10.1-4.2,15.9V1238.3z"/>
	
		<linearGradient id="SVGID_00000114779264648646408860000001663425992631099814_" gradientUnits="userSpaceOnUse" x1="158.2752" y1="-373.7491" x2="3466.9338" y2="1907.7285">
		<stop  offset="0" style="stop-color:#8053E3"/>
		<stop  offset="1" style="stop-color:#84C4EA"/>
	</linearGradient>
	
		<path style="clip-path:url(#SVGID_00000075852304114681025990000017369449885668038302_);fill:url(#SVGID_00000114779264648646408860000001663425992631099814_);" d="
		M2208.6,1242.5H2085V771.4c0-6.6,1.6-12.7,4.8-18.1c3.2-5.4,7.5-9.8,12.9-13c5.4-3.2,11.4-4.8,18-4.8h52.6c6.5,0,12.5,1.6,17.8,4.8
		c5.3,3.2,9.6,7.6,12.8,13l0,0c3.2,5.4,4.8,11.5,4.8,18.1V1242.5z M2089.2,1238.3h115.3V771.4c0-5.8-1.4-11.2-4.2-15.9l0,0
		c-2.8-4.8-6.6-8.7-11.3-11.5c-4.7-2.8-9.9-4.2-15.6-4.2h-52.6c-5.8,0-11.1,1.4-15.8,4.2c-4.7,2.8-8.6,6.7-11.4,11.5
		c-2.8,4.8-4.2,10.1-4.2,15.9V1238.3z"/>
</g>
</svg>
